<?xml version="1.0" encoding="utf-8"?>
<!-- Svg Vector Icons : http://www.onlinewebfonts.com/icon -->
<!DOCTYPE svg PUBLIC "-//W3C//DTD SVG 1.1//EN" "http://www.w3.org/Graphics/SVG/1.1/DTD/svg11.dtd">
<svg version="1.1" xmlns="http://www.w3.org/2000/svg" xmlns:xlink="http://www.w3.org/1999/xlink" x="0px" y="0px" viewBox="0 0 256 256" enable-background="new 0 0 256 256" xml:space="preserve">
<metadata> Svg Vector Icons : http://www.onlinewebfonts.com/icon </metadata>
<g> <path fill="white" d="M245.8,209c-3-19-38.1-4.4-40.3-25.2c-3.1-29.5,40.8-93,37.3-117.7C239.8,44,224.7,39.3,211.7,39 c-12.6-0.2-16,1.8-20.2,4.3c-2.5,1.4-6,4.3-10.9-0.4c-3.3-3.1-5.5-5.3-8.9-8.1c-2.7-2.1-5.9-3.5-9.3-3.9c-4.7-0.7-10.8,0-14.7,1.6 c-3.9,1.7-6.9,4.6-10.1,7.4c-3.2,2.8-11.3,11.8-18.8,8.4c-3.3-1.4-14.3-6.9-22.3-10.4c-15.4-6.7-37.6,4.1-45.6,18.3 c-11.9,21.1-35.4,104.3-39,115.2c-8,24.6,10.1,44.6,34.5,43.5c10.3-0.5,17.2-4.2,23.7-16.1c3.8-6.8,39.1-99.2,41.8-103.7 c1.9-3.2,8.3-7.4,13.7-4.7c5.4,2.8,6.5,8.5,5.7,14c-1.3,8.8-26.2,65.2-27.2,71.5c-1.6,10.8,3.5,16.9,14.8,17.4 c7.7,0.4,15.4-2.3,21.5-13.9c3.4-6.4,42.8-85.2,46.2-90.5c3.8-5.8,6.9-7.7,10.8-7.5c3,0.1,7.9,0.9,6.7,10 c-1.2,8.9-32.9,66.7-36.1,80.8c-4.5,18.9,5.9,38.1,23,46.5C201.9,224.5,249.6,233.6,245.8,209L245.8,209z"/></g>
</svg>
